<svg id="Lager_1" style="enable-background:new -265 388.9 64 64;" version="1.1" viewBox="-265 388.9 64 64" xml:space="preserve" xmlns="http://www.w3.org/2000/svg" xmlns:xlink="http://www.w3.org/1999/xlink"><g><path d="M-214.9,426.7h-36.2c-0.9,0-1.6-0.6-1.6-1.4v-8.6c0-0.8,0.7-1.4,1.6-1.4h36.2c0.9,0,1.6,0.6,1.6,1.4v8.6   C-213.3,426-214,426.7-214.9,426.7z"/><path d="M-214.9,409.4h-36.2c-0.9,0-1.6-0.6-1.6-1.4v-8.6c0-0.9,0.7-1.5,1.6-1.5h36.2c0.9,0,1.6,0.6,1.6,1.4v8.6   C-213.3,408.8-214,409.4-214.9,409.4z"/><path d="M-214.9,443.9h-36.2c-0.9,0-1.6-0.6-1.6-1.4v-8.6c0-0.8,0.7-1.4,1.6-1.4h36.2c0.9,0,1.6,0.6,1.6,1.4v8.6   C-213.3,443.3-214,443.9-214.9,443.9z"/></g></svg>