<?xml version="1.0" ?><!DOCTYPE svg  PUBLIC '-//W3C//DTD SVG 1.1//EN'  'http://www.w3.org/Graphics/SVG/1.1/DTD/svg11.dtd'><svg enable-background="new 0 0 111 117" height="117px" id="Layer_1" version="1.1" viewBox="0 0 111 117" width="111px" xml:space="preserve" xmlns="http://www.w3.org/2000/svg" xmlns:xlink="http://www.w3.org/1999/xlink"><g><path d="M109.469,29.504c-0.77-0.957-1.873-1.504-3.029-1.504H85v12c0,5.514-4.486,10-10,10s-10-4.486-10-10V28H45   v12c0,5.514-4.486,10-10,10s-10-4.486-10-10V28H3.561c-1.157,0-2.26,0.547-3.03,1.504c-0.771,0.957-1.136,2.233-1.004,3.507   l7.195,69.769C6.856,110.646,12.673,117,19.805,117h70.391c7.131,0,12.948-6.354,13.083-14.221l7.195-69.769   C110.605,31.737,110.24,30.461,109.469,29.504z" fill="#231F20"/><path d="M35,44c2.206,0,4-1.794,4-4V18c0-6.177,6.229-10,12-10h10c6.074,0,10,3.925,10,10v22c0,2.206,1.795,4,4,4   s4-1.794,4-4V18C79,7.57,71.43,0,61,0H51C39.972,0,31,8.075,31,18v22C31,42.206,32.794,44,35,44z" fill="#231F20"/></g></svg>