<?xml version="1.0" ?><!DOCTYPE svg  PUBLIC '-//W3C//DTD SVG 1.1//EN'  'http://www.w3.org/Graphics/SVG/1.1/DTD/svg11.dtd'><svg enable-background="new 0 0 46 55" height="55px" id="Layer_1" version="1.1" viewBox="0 0 46 55" width="46px" xml:space="preserve" xmlns="http://www.w3.org/2000/svg" xmlns:xlink="http://www.w3.org/1999/xlink"><path d="M41.029,19H37V8c0-4.411-3.589-8-8-8H17c-4.411,0-8,3.589-8,8v11H4.971C2.226,19,0,21.226,0,23.971v26.059  C0,52.774,2.226,55,4.971,55h36.059C43.774,55,46,52.774,46,50.029V23.971C46,21.226,43.774,19,41.029,19z M15,8  c0-1.103,0.897-2,2-2h12c1.104,0,2,0.897,2,2v11H15V8z" fill="#231F20"/></svg>